<svg width="750" height="750" xmlns="http://www.w3.org/2000/svg">
<style type="text/css">
path{stroke:black;stroke-width:8.680;stroke-opacity:1.000;stroke-linecap:round;fill:transparent}
circle{r:34.720;fill:black;fill-opacity:1.000}
</style>
<path d="M 517.1 84.7 Q 474.6 278.3 374.2 292.4 T 230.3 499.3"/>
<path d="M 517.1 84.7 Q 474.6 278.3 374.2 292.4 T 181.0 131.4"/>
<path d="M 517.1 84.7 Q 474.6 278.3 374.2 292.4 T 84.7 334.3"/>
<path d="M 665.3 252.9 Q 474.6 278.3 374.2 292.4 T 230.3 499.3"/>
<path d="M 665.3 252.9 Q 474.6 278.3 374.2 292.4 T 181.0 131.4"/>
<path d="M 665.3 252.9 Q 474.6 278.3 374.2 292.4 T 84.7 334.3"/>
<path d="M 567.6 451.7 Q 474.6 278.3 374.2 292.4 T 230.3 499.3"/>
<path d="M 567.6 451.7 Q 474.6 278.3 374.2 292.4 T 181.0 131.4"/>
<path d="M 567.6 451.7 Q 474.6 278.3 374.2 292.4 T 84.7 334.3"/>
<circle cx="230.3" cy="499.3"/>
<circle cx="84.7" cy="334.3"/>
<circle cx="181.0" cy="131.4"/>
<circle cx="517.1" cy="84.7"/>
<circle cx="567.6" cy="451.7"/>
<circle cx="665.3" cy="252.9"/>
</svg>